<svg xmlns="http://www.w3.org/2000/svg" xmlns:xlink="http://www.w3.org/1999/xlink" width="2000" zoomAndPan="magnify" viewBox="0 0 1500 1499.999933" height="2000" preserveAspectRatio="xMidYMid meet" version="1.0"><defs><clipPath id="a3e7e049d1"><path d="M 27.273438 403 L 1360 403 L 1360 1465 L 27.273438 1465 Z M 27.273438 403 " clip-rule="nonzero"/></clipPath><clipPath id="3f336e0a9c"><path d="M 86 412 L 1472.523438 412 L 1472.523438 1500 L 86 1500 Z M 86 412 " clip-rule="nonzero"/></clipPath></defs><path fill="#fce170" d="M 1043.476562 459.921875 C 1062 461.28125 1081.761719 463.113281 1096.285156 474.695312 C 1123.167969 496.140625 1118.453125 537.589844 1111.011719 571.167969 C 1071.039062 751.582031 1026.054688 930.882812 976.132812 1108.796875 C 972.621094 1121.3125 968.585938 1134.609375 958.597656 1142.925781 C 931.101562 1165.269531 885.890625 1139.617188 857.90625 1130.671875 C 827.570312 1120.976562 799.859375 1117.507812 768.304688 1116.84375 C 690.136719 1115.195312 613.957031 1081.125 540.121094 1057.777344 C 525.535156 1053.164062 509 1046.707031 504.238281 1032.167969 C 501.320312 1023.246094 503.773438 1013.558594 506.234375 1004.5 C 525.390625 934.011719 545.066406 863.644531 563.738281 793.035156 C 573.542969 755.953125 583.34375 718.875 593.148438 681.796875 C 601.472656 650.308594 621.011719 608.8125 621.011719 576.417969 C 630.652344 539.953125 638.507812 441.332031 681.285156 426.449219 C 697.390625 420.847656 714.558594 430.605469 730.011719 434.246094 C 759.253906 441.136719 789.980469 441.25 819.859375 443.453125 C 894.398438 448.941406 968.933594 454.429688 1043.476562 459.921875 Z M 1043.476562 459.921875 " fill-opacity="1" fill-rule="nonzero"/><path fill="#75baa3" d="M 131.28125 380.003906 C 134.558594 366.152344 138.242188 351.671875 147.859375 341.179688 C 162.253906 325.464844 185.675781 322.878906 206.925781 321.292969 C 280.980469 315.773438 355.039062 310.257812 429.09375 304.738281 C 459.785156 302.453125 495.097656 301.886719 515.859375 324.609375 C 530.167969 340.273438 533.296875 362.855469 535.546875 383.953125 C 559.292969 606.96875 558.019531 832.644531 531.753906 1055.378906 C 413.128906 1049.539062 294.871094 1036.308594 177.886719 1015.785156 C 161.953125 1012.988281 144.878906 1009.441406 133.878906 997.585938 C 124.515625 987.492188 121.382812 973.273438 118.613281 959.785156 C 108.292969 909.507812 97.96875 859.230469 87.648438 808.953125 C 78.0625 762.261719 64.144531 719.554688 73.375 672.699219 C 83.082031 623.425781 90.132812 573.605469 99.90625 524.3125 C 108.773438 479.597656 131.28125 425.246094 131.28125 380.003906 Z M 131.28125 380.003906 " fill-opacity="1" fill-rule="nonzero"/><path fill="#403651" d="M 677.921875 147.085938 C 681.605469 170.132812 684.902344 193.550781 686.445312 216.84375 C 686.910156 223.824219 675.246094 225.417969 674.207031 218.5 C 667.871094 176.429688 667.230469 131.632812 651.703125 91.488281 C 624.058594 19.996094 531.042969 34.574219 484.492188 77 C 460.066406 99.265625 444.039062 128.992188 438.410156 161.542969 C 435.269531 179.71875 435.390625 198.652344 438.222656 216.863281 C 440.84375 233.746094 447.535156 249.210938 451.304688 265.722656 C 451.800781 267.90625 448.855469 270.140625 447.207031 268.109375 C 434 251.832031 428.828125 228.460938 426.214844 208.113281 C 423.535156 187.21875 425.027344 165.601562 430.261719 145.199219 C 447.453125 78.207031 513.4375 23.085938 584.453125 29.511719 C 619.679688 32.699219 649.007812 51.390625 662.75 84.511719 C 670.957031 104.289062 674.558594 126.050781 677.921875 147.085938 Z M 1055.070312 527.0625 C 1040.585938 521.488281 1025.125 519.636719 1009.894531 517.039062 C 1002.570312 515.789062 995.246094 514.542969 987.921875 513.292969 C 1001.25 447.851562 1001.039062 372.960938 949.132812 325.460938 C 926.054688 304.335938 895.421875 293.980469 864.425781 300.402344 C 849.371094 303.519531 835.214844 310.417969 823.207031 319.96875 C 812.902344 328.164062 798.894531 342.292969 798.679688 356.34375 C 798.621094 359.910156 802.828125 361.132812 805.261719 359.070312 C 810.191406 354.894531 812.878906 348.804688 817.039062 343.875 C 821.789062 338.246094 827.109375 333.046875 832.980469 328.605469 C 844.335938 320.019531 857.753906 314.242188 871.839844 312.101562 C 901.175781 307.644531 928.898438 321.191406 948.199219 342.777344 C 990.863281 390.5 983.929688 452.480469 975.238281 511.128906 C 971.527344 510.496094 967.816406 509.863281 964.109375 509.230469 C 933.582031 504.023438 903.046875 498.851562 872.519531 493.667969 C 812.597656 483.496094 752.714844 472.609375 692.246094 466.453125 C 688.929688 466.113281 688.289062 471.457031 691.464844 472.222656 C 751.574219 486.722656 812.753906 496.367188 873.691406 506.804688 C 903.445312 511.902344 933.203125 517.007812 962.960938 522.085938 C 966.363281 522.664062 969.863281 523.402344 973.3125 524.070312 C 972.4375 529.925781 971.570312 535.75 970.78125 541.492188 C 969.917969 547.757812 978.808594 550.710938 980.582031 544.191406 C 982.167969 538.378906 983.644531 532.386719 985.0625 526.328125 C 1007.878906 530.96875 1031.339844 535.933594 1053.964844 535.242188 C 1058.863281 535.09375 1059.351562 528.710938 1055.070312 527.0625 Z M 281.121094 339.78125 C 267.242188 339.96875 253.359375 340.4375 239.5 341.1875 C 225.632812 341.9375 211.78125 343.011719 197.96875 344.417969 C 183.53125 345.890625 169.710938 348.933594 155.527344 351.648438 C 151.128906 352.492188 152.078125 359.878906 156.597656 359.527344 C 184.636719 357.339844 212.96875 355.515625 241.097656 354.019531 C 254.960938 353.28125 268.839844 352.824219 282.722656 352.644531 C 294.878906 352.488281 310.054688 354.632812 321.304688 349.375 C 323.632812 348.285156 323.476562 344.554688 321.304688 343.417969 C 309.941406 337.472656 293.5625 339.609375 281.121094 339.78125 Z M 169.746094 394.101562 C 159.867188 436.375 155.367188 480.136719 150.21875 523.203125 C 145.097656 566.058594 140.925781 609.023438 137.484375 652.046875 C 134.046875 695.054688 131.304688 738.109375 129.273438 781.207031 C 128.257812 802.753906 127.367188 824.308594 126.804688 845.871094 C 126.238281 867.527344 124.640625 890.152344 127.570312 911.667969 C 128.121094 915.707031 134.929688 915.585938 135.597656 911.667969 C 139.015625 891.726562 138.570312 870.671875 139.304688 850.488281 C 140.09375 828.933594 140.914062 807.375 141.925781 785.824219 C 143.980469 741.964844 146.695312 698.128906 150.082031 654.351562 C 153.40625 611.351562 157.347656 568.40625 161.6875 525.5 C 166.085938 481.996094 172.644531 438.464844 174.914062 394.800781 C 175.066406 391.847656 170.421875 391.214844 169.746094 394.101562 Z M 169.746094 394.101562 " fill-opacity="1" fill-rule="nonzero"/><path fill="#e5514a" d="M 312.96875 380.957031 C 312.671875 378.246094 312.378906 375.539062 312.085938 372.828125 C 310.25 355.804688 298.53125 318.472656 304.753906 302.640625 C 311.347656 285.863281 338.761719 278.933594 354.140625 274.089844 C 526.203125 219.878906 704.847656 186.617188 884.886719 175.273438 C 919.066406 421.976562 943.953125 670.191406 944.234375 919.214844 C 944.253906 932.773438 943.964844 947.324219 936.078125 958.351562 C 926.988281 971.054688 910.445312 975.519531 895.226562 979.050781 C 750.226562 1012.671875 603.699219 1039.699219 456.246094 1060.023438 C 443.441406 1061.789062 429.121094 1063.136719 418.8125 1055.339844 C 408.765625 1047.742188 406.003906 1034.070312 403.957031 1021.640625 C 377.691406 861.90625 352.863281 702.710938 332.144531 542.175781 C 325.21875 488.503906 318.824219 434.757812 312.96875 380.957031 Z M 312.96875 380.957031 " fill-opacity="1" fill-rule="nonzero"/><path fill="#403651" d="M 860.78125 201.898438 C 840.691406 202.363281 820.238281 206.886719 800.53125 210.515625 C 781.011719 214.113281 761.546875 218.0625 742.085938 221.964844 C 738.800781 222.625 735.527344 223.375 732.238281 224.039062 C 727.964844 196.347656 722.789062 168.777344 715.898438 141.703125 C 704.410156 96.554688 683.53125 54.019531 642.046875 29.226562 C 595.492188 1.40625 538.105469 13.488281 501.769531 52.453125 C 468.328125 88.3125 456.003906 140.351562 461.726562 188.164062 C 465.453125 219.3125 471.148438 250.988281 479.144531 281.816406 C 446.503906 290.335938 413.933594 299.144531 381.425781 308.390625 C 378.992188 307.597656 376.144531 307.332031 374.421875 307.148438 C 369.671875 306.644531 364.90625 306.261719 360.148438 305.828125 C 355.066406 305.367188 349.984375 304.859375 344.90625 304.378906 C 342.566406 304.160156 340.160156 303.921875 337.8125 303.902344 C 335.394531 303.882812 332.257812 303.683594 330.007812 304.589844 C 328.277344 305.289062 327.082031 307.671875 328.800781 309.160156 C 332.253906 312.152344 338.160156 313.15625 342.570312 314.027344 C 347.71875 315.039062 352.914062 315.757812 358.113281 316.425781 C 362.859375 317.039062 367.605469 317.546875 372.378906 317.90625 C 376.183594 318.195312 384.441406 319.226562 385.703125 314.109375 C 417.632812 306.558594 449.644531 299.226562 481.660156 291.9375 C 485.007812 303.902344 488.714844 315.71875 492.910156 327.257812 C 494.695312 332.164062 501.761719 330.257812 500.742188 325.097656 C 498.378906 313.132812 495.804688 301.195312 493.273438 289.253906 C 536.246094 279.5 579.253906 269.894531 622.253906 260.402344 C 655.328125 253.101562 688.488281 246.1875 721.667969 239.390625 C 723.378906 251.433594 724.933594 263.484375 726.328125 275.519531 C 727.273438 283.683594 740.207031 283.78125 739.25 275.519531 C 737.753906 262.59375 736.042969 249.664062 734.191406 236.742188 C 736.472656 236.28125 738.742188 235.757812 741.023438 235.296875 C 760.480469 231.375 779.96875 227.585938 799.453125 223.796875 C 820.152344 219.765625 841.886719 216.554688 861.820312 209.574219 C 865.804688 208.179688 865.414062 201.789062 860.78125 201.898438 Z M 621.054688 247.445312 C 577.46875 257.070312 534.1875 267.558594 491.070312 278.679688 C 486.546875 257.347656 482.109375 235.992188 478.445312 214.503906 C 470.835938 169.820312 470.519531 125.757812 493.867188 84.972656 C 520.109375 39.132812 576.179688 11.472656 626.519531 35.53125 C 668.277344 55.484375 690.457031 96.449219 701.90625 139.257812 C 709.570312 167.917969 715.160156 197.238281 719.679688 226.683594 C 686.761719 233.40625 653.859375 240.207031 621.054688 247.445312 Z M 621.054688 247.445312 " fill-opacity="1" fill-rule="nonzero"/><path fill="#403651" d="M 403.699219 572.875 C 399.769531 532.261719 395.1875 491.707031 389.867188 451.25 C 387.398438 432.464844 384.789062 413.699219 381.972656 394.964844 C 378.84375 374.117188 377.257812 351.640625 370.703125 331.5625 C 369.710938 328.53125 365.140625 329.015625 365.082031 332.324219 C 364.707031 353.464844 369.507812 375.335938 372.050781 396.304688 C 374.453125 416.140625 376.820312 435.980469 379.074219 455.832031 C 383.664062 496.339844 387.882812 536.878906 391.660156 577.472656 C 395.4375 618.078125 398.582031 658.738281 401.367188 699.425781 C 404.097656 739.308594 402.953125 780.960938 410.339844 820.292969 C 411.183594 824.777344 417.300781 823.175781 417.714844 819.296875 C 422.0625 778.578125 416.304688 735.558594 413.660156 694.820312 C 411.019531 654.125 407.625 613.464844 403.699219 572.875 Z M 403.699219 572.875 " fill-opacity="1" fill-rule="nonzero"/><g clip-path="url(#a3e7e049d1)"><path fill="#fffcf0" d="M 1353.875 450.136719 C 1345.605469 438.25 1335.847656 429.207031 1321.683594 425.332031 C 1315.199219 423.558594 1308.226562 422.792969 1301.609375 421.566406 C 1288.222656 419.09375 1274.824219 416.679688 1261.410156 414.328125 C 1247.976562 411.972656 1234.511719 409.910156 1221.007812 407.960938 C 1211.519531 406.59375 1201.992188 404.988281 1192.457031 403.988281 C 1177.871094 402.457031 1166.445312 409.464844 1154.308594 417.609375 C 1137.027344 429.207031 1122.082031 497.40625 1114.292969 527.789062 C 1111.863281 537.285156 1109.261719 546.734375 1106.796875 556.222656 C 1095.664062 555.507812 1084.488281 555.605469 1073.320312 555.535156 C 1051.902344 555.394531 1030.488281 555.28125 1009.070312 555.191406 C 962.664062 555 916.261719 554.925781 869.855469 554.976562 C 778.832031 555.070312 687.808594 555.617188 596.789062 556.628906 C 505.769531 557.640625 414.761719 559.109375 323.753906 561.039062 C 277.375 562.023438 230.949219 562.695312 184.582031 564.347656 C 142.089844 565.859375 89.363281 562.054688 51.710938 584.617188 C 46.25 587.886719 42.433594 592.890625 40.007812 598.484375 C 32.140625 605.691406 27.035156 615.78125 27.21875 627.3125 C 27.738281 659.945312 37.460938 693.5625 43.875 725.472656 C 50.179688 756.835938 56.484375 788.195312 62.785156 819.554688 C 75.378906 882.195312 86.367188 945.429688 100.820312 1007.664062 C 104.816406 1024.863281 120.820312 1036.601562 137.789062 1038.546875 C 162.839844 1061.289062 202.878906 1062.539062 234.828125 1068.117188 C 271.46875 1074.511719 308.089844 1080.980469 344.699219 1087.515625 C 416.195312 1100.285156 487.703125 1112.992188 559.144531 1126.0625 C 630.585938 1139.128906 701.984375 1152.46875 773.332031 1166.074219 C 808.132812 1172.707031 842.921875 1179.410156 877.703125 1186.175781 C 896.296875 1189.792969 917.300781 1195.917969 938.257812 1200.335938 C 934.960938 1214.464844 931.558594 1229.523438 930.167969 1244.199219 C 916.671875 1244.359375 903.414062 1245.160156 891.796875 1245.195312 C 854.351562 1245.308594 816.902344 1245.339844 779.453125 1245.207031 C 706.339844 1244.949219 633.230469 1244.164062 560.128906 1242.855469 C 487.027344 1241.546875 413.9375 1239.714844 340.863281 1237.359375 C 305.21875 1236.210938 269.574219 1234.9375 233.941406 1233.539062 C 195.429688 1232.027344 156.011719 1223.734375 121.757812 1244.71875 C 99.933594 1258.089844 102.925781 1285.457031 121.757812 1299.394531 C 152.285156 1321.980469 192.171875 1317.125 228.59375 1318.601562 C 266.011719 1320.113281 303.4375 1321.492188 340.863281 1322.734375 C 415.71875 1325.214844 490.59375 1327.140625 565.476562 1328.523438 C 638.578125 1329.875 711.6875 1330.695312 784.804688 1330.996094 C 822.246094 1331.148438 859.703125 1331.339844 897.144531 1331.042969 C 934.792969 1330.746094 974.765625 1334.605469 1005.71875 1310.535156 C 1017.34375 1301.492188 1017.398438 1287.785156 1012.175781 1276.160156 C 1021.730469 1251.742188 1022.136719 1220.546875 1026.660156 1196.949219 C 1033.644531 1160.542969 1041.554688 1124.316406 1050.125 1088.253906 C 1067.308594 1015.996094 1087.167969 944.410156 1107.585938 873.011719 C 1128.035156 801.5 1149.089844 730.160156 1168.675781 658.40625 C 1178.015625 624.175781 1187.070312 589.886719 1195.113281 555.328125 C 1199.824219 535.078125 1205.992188 513.375 1208.972656 491.695312 C 1222.1875 494.148438 1235.410156 496.5625 1248.640625 498.914062 C 1260.128906 500.957031 1271.613281 503.042969 1283.085938 505.179688 C 1290.238281 506.507812 1297.351562 507.941406 1304.5625 508.910156 C 1317.59375 510.664062 1329.46875 508.390625 1340.519531 501.078125 C 1356.28125 490.65625 1365.890625 467.40625 1353.875 450.136719 Z M 181.34375 974.925781 C 173.480469 930.824219 164.097656 886.925781 154.855469 843.039062 C 183.53125 846.921875 212.609375 848.75 241.6875 849.714844 C 241.945312 871.5 242.207031 893.28125 242.46875 915.0625 C 242.738281 937.78125 242.339844 960.78125 242.855469 983.6875 C 222.910156 979.898438 201.785156 975 181.34375 974.925781 Z M 241.082031 691.886719 C 240.734375 715.917969 241 739.953125 241.117188 763.984375 C 207.105469 763.714844 173.097656 764.804688 139.546875 768.898438 C 135.5625 749.277344 131.578125 729.652344 127.59375 710.027344 C 123.722656 690.96875 120.714844 670.695312 116.320312 651.035156 C 139.359375 651.992188 162.878906 650.25 184.582031 649.890625 C 204.109375 649.5625 223.632812 648.984375 243.15625 648.476562 C 241.402344 663.492188 241.277344 678.734375 241.082031 691.886719 Z M 412.824219 1013.101562 C 395.945312 1010.144531 379.101562 1006.988281 362.210938 1004.089844 C 351.496094 1002.253906 340.773438 1000.464844 330.0625 998.636719 C 331.019531 968.164062 328.488281 936.832031 328.089844 906.796875 L 327.351562 851.484375 C 359.394531 852.1875 391.441406 852.890625 423.484375 853.59375 C 420.628906 906.804688 417.15625 959.992188 412.824219 1013.101562 Z M 429.589844 695.96875 C 428.933594 720.035156 428.0625 744.082031 427.261719 768.132812 C 395.402344 767.4375 363.539062 766.738281 331.679688 766.035156 C 329.734375 765.996094 327.765625 765.933594 325.816406 765.886719 C 325.3125 741.214844 324.886719 716.542969 323.945312 691.886719 C 323.429688 678.285156 322.960938 662.261719 320.671875 646.605469 C 321.703125 646.582031 322.730469 646.554688 323.753906 646.53125 C 359.4375 645.761719 395.125 645.390625 430.8125 644.761719 C 429.175781 663.25 429.964844 682.277344 429.589844 695.96875 Z M 593.207031 1045.367188 C 587.71875 1044.363281 582.234375 1043.300781 576.742188 1042.292969 C 550.152344 1037.433594 523.511719 1032.863281 496.90625 1028.078125 C 502.058594 970.613281 505.730469 913.0625 508.632812 855.460938 C 528.152344 855.890625 547.675781 856.316406 567.199219 856.746094 C 584.144531 857.121094 601.085938 857.492188 618.035156 857.863281 C 610.078125 920.410156 601.097656 982.828125 593.207031 1045.367188 Z M 637.527344 692.992188 C 634.226562 719.480469 631.253906 746.015625 628.292969 772.542969 C 607.929688 772.097656 587.566406 771.652344 567.199219 771.203125 C 548.957031 770.804688 530.714844 770.402344 512.46875 770.003906 C 513.621094 737.003906 514.667969 703.941406 513.976562 670.960938 C 513.828125 663.777344 513.398438 653.90625 512.171875 643.417969 C 540.382812 643.007812 568.582031 642.34375 596.789062 642.023438 C 612.597656 641.839844 628.40625 641.871094 644.214844 641.71875 C 641.472656 658.730469 639.65625 675.902344 637.527344 692.992188 Z M 779.378906 970.5 C 771.304688 1003.734375 758.394531 1039.878906 752.523438 1075.113281 C 727.226562 1070.394531 701.933594 1065.660156 676.640625 1060.945312 C 687.527344 994.25 695.5 926.859375 703.421875 859.738281 C 737.535156 860.484375 771.644531 861.230469 805.753906 861.984375 C 796.964844 898.15625 788.171875 934.328125 779.378906 970.5 Z M 714.171875 774.429688 C 720.023438 730.179688 725.289062 685.289062 723.425781 641.207031 C 769.171875 640.898438 814.914062 640.441406 860.660156 640.324219 C 853.660156 662.292969 849.109375 685.351562 843.441406 707.683594 C 837.605469 730.703125 832.117188 753.8125 826.523438 776.894531 C 789.074219 776.074219 751.625 775.253906 714.171875 774.429688 Z M 966.164062 1070.34375 C 962.828125 1084.484375 959.691406 1098.671875 956.578125 1112.863281 C 939.304688 1109.707031 921.789062 1107.503906 905.746094 1104.378906 C 883.707031 1100.089844 861.65625 1095.875 839.609375 1091.632812 C 849.324219 1059.515625 854.5 1024.585938 862.070312 993.300781 C 872.515625 950.167969 882.957031 907.039062 893.398438 863.90625 C 935.648438 864.832031 977.90625 865.757812 1020.15625 866.6875 C 1000.9375 934.238281 982.300781 1001.976562 966.164062 1070.34375 Z M 1044.476562 781.765625 C 1044.164062 781.753906 1043.902344 781.664062 1043.589844 781.65625 C 1000.351562 780.710938 957.113281 779.761719 913.878906 778.8125 C 917.769531 762.648438 921.796875 746.515625 925.546875 730.320312 C 932.335938 701 941.746094 670.691406 944.378906 640.355469 C 965.945312 640.386719 987.503906 640.351562 1009.070312 640.433594 C 1030.488281 640.515625 1051.902344 640.621094 1073.320312 640.75 C 1076.96875 640.773438 1080.664062 640.894531 1084.347656 640.992188 C 1071.457031 688.03125 1057.984375 734.90625 1044.476562 781.765625 Z M 277.589844 1405.339844 C 280.863281 1414.949219 282.625 1425.734375 278.710938 1435.097656 C 275.589844 1442.570312 269.152344 1448.265625 262.003906 1452.0625 C 254.851562 1455.855469 246.945312 1457.957031 239.117188 1460.03125 C 224.683594 1463.851562 209.042969 1467.617188 195.183594 1462.0625 C 184.6875 1457.855469 176.792969 1448.75 171.511719 1438.757812 C 161.726562 1420.246094 159.996094 1397.203125 168.800781 1378.210938 C 173.574219 1367.917969 181.542969 1359.144531 191.214844 1353.25 C 198.863281 1348.585938 209.316406 1344.605469 218.433594 1344.886719 C 227.007812 1345.148438 235.867188 1352.03125 242.4375 1357.015625 C 258.53125 1369.21875 271.0625 1386.191406 277.589844 1405.339844 Z M 977.265625 1405.339844 C 980.539062 1414.949219 982.300781 1425.734375 978.390625 1435.097656 C 975.265625 1442.570312 968.832031 1448.265625 961.679688 1452.0625 C 954.527344 1455.855469 946.621094 1457.957031 938.796875 1460.03125 C 924.359375 1463.851562 908.71875 1467.617188 894.863281 1462.0625 C 884.367188 1457.855469 876.472656 1448.75 871.1875 1438.757812 C 861.40625 1420.246094 859.671875 1397.203125 868.480469 1378.210938 C 873.25 1367.917969 881.222656 1359.144531 890.894531 1353.25 C 898.539062 1348.585938 908.992188 1344.605469 918.109375 1344.886719 C 926.683594 1345.148438 935.546875 1352.03125 942.113281 1357.015625 C 958.210938 1369.21875 970.738281 1386.191406 977.265625 1405.339844 Z M 977.265625 1405.339844 " fill-opacity="1" fill-rule="nonzero"/></g><g clip-path="url(#3f336e0a9c)"><path fill="#403651" d="M 245.71875 1313.394531 C 218.453125 1306.761719 188.550781 1310.25 164.085938 1324.238281 C 137.472656 1339.453125 121.464844 1365.996094 118.128906 1396.144531 C 114.417969 1429.703125 130.066406 1462.363281 157.601562 1481.40625 C 168.773438 1489.132812 181.851562 1493.6875 195.207031 1495.917969 C 207.890625 1499.109375 221.195312 1500.011719 234.671875 1498.203125 C 264.128906 1494.246094 291.757812 1477.949219 307.230469 1452.15625 C 322.386719 1426.894531 324.761719 1394.660156 313.203125 1367.621094 C 301.367188 1339.9375 274.597656 1320.425781 245.71875 1313.394531 Z M 267.320312 1430.046875 C 262.917969 1444.503906 245.777344 1451.636719 232.183594 1454.523438 C 231.464844 1454.675781 229.296875 1455.011719 228.59375 1455.144531 C 225.800781 1455.421875 222.996094 1455.609375 220.1875 1455.609375 C 217.722656 1455.609375 215.273438 1455.46875 212.8125 1455.289062 C 212.738281 1455.285156 212.238281 1455.214844 211.746094 1455.152344 C 210.933594 1454.992188 209.558594 1454.738281 209.253906 1454.675781 C 206.925781 1454.1875 204.621094 1453.601562 202.351562 1452.902344 C 201.480469 1452.632812 197.53125 1451.070312 197.085938 1450.980469 C 174.195312 1440.148438 165.707031 1407.628906 175.859375 1384.914062 C 185.5 1363.347656 208.097656 1352.710938 230.738281 1356.273438 C 246.136719 1358.699219 260.003906 1369.316406 266.367188 1383.550781 C 269.328125 1390.175781 270.605469 1398.523438 270.597656 1406.9375 C 270.589844 1415.082031 269.378906 1423.289062 267.320312 1430.046875 Z M 945.398438 1313.394531 C 918.132812 1306.761719 888.230469 1310.25 863.761719 1324.238281 C 837.152344 1339.453125 821.140625 1365.996094 817.804688 1396.144531 C 814.09375 1429.703125 829.742188 1462.363281 857.28125 1481.40625 C 868.453125 1489.132812 881.53125 1493.6875 894.882812 1495.917969 C 907.570312 1499.109375 920.871094 1500.011719 934.351562 1498.203125 C 963.804688 1494.246094 991.4375 1477.949219 1006.910156 1452.15625 C 1022.066406 1426.894531 1024.4375 1394.660156 1012.878906 1367.621094 C 1001.042969 1339.9375 974.273438 1320.425781 945.398438 1313.394531 Z M 967 1430.046875 C 962.59375 1444.503906 945.457031 1451.636719 931.863281 1454.523438 C 931.140625 1454.675781 928.976562 1455.011719 928.269531 1455.144531 C 925.476562 1455.421875 922.671875 1455.609375 919.867188 1455.609375 C 917.402344 1455.609375 914.949219 1455.46875 912.492188 1455.289062 C 912.417969 1455.285156 911.914062 1455.214844 911.425781 1455.152344 C 910.609375 1454.992188 909.234375 1454.738281 908.929688 1454.675781 C 906.605469 1454.1875 904.300781 1453.601562 902.027344 1452.902344 C 901.160156 1452.632812 897.207031 1451.070312 896.765625 1450.980469 C 873.875 1440.148438 865.386719 1407.628906 875.535156 1384.914062 C 885.175781 1363.347656 907.777344 1352.710938 930.414062 1356.273438 C 945.816406 1358.699219 959.683594 1369.316406 966.042969 1383.550781 C 969.003906 1390.175781 970.285156 1398.523438 970.273438 1406.9375 C 970.269531 1415.082031 969.058594 1423.289062 967 1430.046875 Z M 1128.703125 646.332031 C 1090.136719 648.824219 1050.859375 645.773438 1012.234375 645.039062 C 974.960938 644.332031 937.6875 643.753906 900.410156 643.3125 C 765.277344 641.714844 630.128906 641.859375 495.003906 643.757812 C 428.214844 644.699219 361.4375 646.066406 294.664062 647.859375 C 260.507812 648.773438 226.347656 649.625 192.195312 650.644531 C 158.082031 651.660156 123.867188 653.59375 89.742188 652.101562 C 84.683594 651.878906 84.964844 645.027344 89.742188 644.4375 C 128.296875 639.675781 167.382812 639.265625 206.167969 637.867188 C 243.425781 636.519531 280.6875 635.320312 317.960938 634.375 C 453.054688 630.945312 588.195312 629.269531 723.332031 629.34375 C 790.128906 629.378906 856.921875 629.84375 923.707031 630.730469 C 957.875 631.1875 992.046875 631.757812 1026.210938 632.4375 C 1060.230469 633.113281 1094.886719 632.199219 1128.703125 636.164062 C 1135.113281 636.917969 1135.355469 645.902344 1128.703125 646.332031 Z M 1062.023438 873.027344 C 1027.507812 874.605469 992.570312 872.234375 958.023438 871.535156 C 924.652344 870.867188 891.28125 870.257812 857.90625 869.675781 C 736.835938 867.566406 615.761719 865.796875 494.707031 862.796875 C 432.984375 861.269531 371.261719 859.480469 309.570312 856.957031 C 248.636719 854.46875 186.761719 853.300781 126.226562 845.449219 C 127.5625 850.675781 129.058594 855.855469 130.367188 861.097656 C 133.671875 874.328125 136.890625 887.585938 140.042969 900.855469 C 142.804688 912.492188 147.550781 925.78125 146.449219 937.820312 C 146.121094 941.40625 141.605469 942.953125 139.550781 939.6875 C 132.882812 929.101562 131.0625 914.59375 128.175781 902.554688 C 125.109375 889.78125 122.089844 876.992188 119.164062 864.1875 C 113.179688 838.023438 107.589844 811.855469 102.335938 785.546875 C 101.363281 780.6875 108.464844 778.625 109.820312 783.484375 C 114.902344 801.652344 119.574219 819.90625 124.296875 838.160156 C 124.3125 838.160156 124.316406 838.144531 124.332031 838.144531 C 193.667969 837.09375 263.4375 842.6875 332.730469 845.035156 C 454.324219 849.160156 575.941406 851.929688 697.582031 854.070312 C 758.625 855.148438 819.667969 856.132812 880.710938 857.230469 C 911.015625 857.777344 941.324219 858.351562 971.628906 858.980469 C 1001.675781 859.605469 1032.097656 859.019531 1062.023438 861.890625 C 1069.082031 862.566406 1069.285156 872.695312 1062.023438 873.027344 Z M 832.625 1275.4375 C 791.523438 1275.621094 750.421875 1275.808594 709.320312 1275.824219 C 626.320312 1275.855469 543.363281 1275.402344 460.378906 1273.65625 C 456.589844 1273.574219 456.605469 1267.894531 460.378906 1267.777344 C 543.351562 1265.269531 626.3125 1264.0625 709.320312 1263.332031 C 750.421875 1262.972656 791.523438 1262.785156 832.625 1262.589844 C 874.476562 1262.394531 916.488281 1261.070312 958.257812 1263.664062 C 964.425781 1264.046875 964.382812 1272.78125 958.257812 1273.21875 C 916.511719 1276.191406 874.484375 1275.253906 832.625 1275.4375 Z M 1472.566406 476.542969 C 1472.273438 488.195312 1468.476562 499.445312 1464.699219 510.476562 C 1459.800781 524.773438 1453.007812 540.929688 1438.542969 545.296875 C 1431.023438 547.5625 1422.949219 546.03125 1415.253906 544.488281 C 1370.367188 535.480469 1323.980469 529.21875 1279.992188 516.511719 C 1266.710938 512.671875 1250.734375 514.683594 1246.683594 498.945312 C 1241.789062 479.953125 1247.652344 455.664062 1254.8125 437.992188 C 1255.527344 436.226562 1256.289062 434.472656 1257.121094 432.75 C 1259.171875 428.53125 1261.667969 424.542969 1265 421.269531 C 1282.148438 404.417969 1318.707031 417.511719 1338.96875 420.703125 C 1369.789062 425.550781 1400.609375 430.402344 1431.433594 435.25 C 1441.539062 436.839844 1452.171875 438.65625 1460.085938 445.148438 C 1469.097656 452.542969 1472.855469 464.882812 1472.566406 476.542969 Z M 1472.566406 476.542969 " fill-opacity="1" fill-rule="nonzero"/></g></svg>